<svg xmlns="http://www.w3.org/2000/svg" viewBox="0 0 432.1 128.67"><defs><style>.cls-1{fill:#333;}.cls-2{fill:#d4145a;}.cls-3,.cls-4{fill:none;stroke:gray;stroke-miterlimit:10;stroke-width:2px;}.cls-4{stroke-dasharray:4.98 1.99;}</style></defs><title>logo</title><g id="Layer_2" data-name="Layer 2"><g id="Layer_1-2" data-name="Layer 1"><path class="cls-1" d="M143.34,34.28c0,20-9.18,40.76-31.65,40.76-7.22,0-13.09-3.17-16.2-7.49V85.24c0,7.9,5,10,13.3,10v2.9c-4-.13-11.88-.61-19.91-.61-5.8,0-12,.47-14.92.61v-2.9c6.61,0,9.11-2,9.11-8.57V17c0-8.3-2.5-12.22-10.53-12.22V1.89c2.9.27,5.8.4,8.57.4A46.1,46.1,0,0,0,95.49.4V15C99.68,5.4,107.84,0,117.63,0,132.14,0,143.34,12,143.34,34.28Zm-13.43,1.89c0-21.93-5.53-32.06-16.06-32.06-8,0-15.39,5.8-18.36,17.48V63a15.56,15.56,0,0,0,14.64,8.91C125.46,71.88,129.91,55.81,129.91,36.17Z"/><path class="cls-1" d="M201,5.2c4.39,4.45,5.53,9.58,5.53,19.37V63c0,4.45,1.08,6.55,4.25,6.55,2.5,0,4.32-1.28,6.21-2.9L218.53,69c-3.85,2.9-6.75,5.06-12.62,5.06C196.26,74,194,68.23,194,61.75,188.09,71.54,179.39,74,172.77,74c-9.25,0-17.55-4.66-17.55-15.45S163.66,42.79,177.5,37C186.74,33.14,194,30.78,194,25.24V16.67c0-11.61-5.67-13.9-12.82-13.9-4.72,0-10.53.94-13.7,4.93A8.53,8.53,0,0,1,174,16.13c0,4.72-3.17,7.49-8.1,7.49-4.72,0-7.49-3.58-7.49-8.57,0-4,2.63-7.22,6.48-9.85S175.41,0,184.25,0C192,0,197.81,2,201,5.2Zm-7,25.71c-1.48,2.23-4.52,3.64-13.23,7.9-6.07,2.9-13.43,6.88-13.43,17.55,0,8.3,4.72,12.15,11.07,12.15C184,68.5,189.38,65.6,194,58Z"/><path class="cls-1" d="M278.26,10.87c0,4.72-3,8.71-7.9,8.71-3.85,0-7.36-2.56-7.36-7.15,0-3.44,2.23-5.94,4.72-7.49a3.35,3.35,0,0,0-2.9-1.35c-11.61,0-19.23,15.73-19.23,26V58.85c0,9,5.53,11.34,14.65,11.34v2.9C256,73,247.55,72.55,239,72.55c-6.34,0-13.16.4-16.33.54v-2.9c7.63,0,10.53-2.23,10.53-9.92V17c0-8.3-2.5-12.22-10.53-12.22V1.89c2.9.27,5.8.4,8.57.4A46.1,46.1,0,0,0,245.6.4V17.68C248.5,9.65,256,0,265.64,0,273.13,0,278.26,4.93,278.26,10.87Z"/><path class="cls-1" d="M345.28,5.2c3.44,3.78,4.79,8.71,4.79,18.16V60.27c0,7.7,2.9,9.92,10.53,9.92v2.9c-3.17-.13-10.53-.54-16.6-.54s-12.55.4-15.46.54v-2.9c6.61,0,9.11-2.23,9.11-9.92v-40c0-8.57-1.22-15.93-11.2-15.93-11.61,0-19.37,11.07-19.37,25.17V60.27c0,7.7,2.5,9.92,9.18,9.92v2.9c-2.9-.13-9.45-.54-15.52-.54s-13.43.4-16.6.54v-2.9c7.63,0,10.53-2.23,10.53-9.92V17c0-8.3-2.5-12.22-10.53-12.22V1.89c2.9.27,5.8.4,8.57.4A46.1,46.1,0,0,0,307.08.4V16.67C311.94,4.25,321.19,0,330.64,0,337.66,0,342.11,1.89,345.28,5.2Z"/><path class="cls-1" d="M413.86,5.2c4.39,4.45,5.53,9.58,5.53,19.37V63c0,4.45,1.08,6.55,4.25,6.55,2.5,0,4.32-1.28,6.21-2.9L431.4,69c-3.85,2.9-6.75,5.06-12.62,5.06-9.65,0-11.88-5.8-11.88-12.28C401,71.54,392.26,74,385.65,74c-9.25,0-17.55-4.66-17.55-15.45s8.44-15.79,22.27-21.6c9.25-3.85,16.54-6.21,16.54-11.74V16.67c0-11.61-5.67-13.9-12.82-13.9-4.72,0-10.53.94-13.7,4.93a8.53,8.53,0,0,1,6.48,8.44c0,4.72-3.17,7.49-8.1,7.49-4.72,0-7.49-3.58-7.49-8.57,0-4,2.63-7.22,6.48-9.85S388.28,0,397.12,0C404.88,0,410.68,2,413.86,5.2Zm-7,25.71c-1.48,2.23-4.52,3.64-13.23,7.9-6.07,2.9-13.43,6.88-13.43,17.55,0,8.3,4.72,12.15,11.07,12.15,5.53,0,10.93-2.9,15.59-10.46Z"/><path class="cls-2" d="M65.54,67.19a17.85,17.85,0,0,1-3.1,2.16,6.58,6.58,0,0,1-3.1.74,3.56,3.56,0,0,1-3.27-1.55,9.69,9.69,0,0,1-1-5V35.77C51.55,43,42.59,58.62,42.59,58.62Q36.17,69.08,27,69.08A10.79,10.79,0,0,1,19,66q-3-3.07-3-9.08a16.31,16.31,0,0,1,2-8.3,17,17,0,0,1,4.73-5.37,43.71,43.71,0,0,1,6.75-3.88q7.49-3.65,9.85-5c.79-.45,3.37-2.3,3.37-2.3C49.87,27,55.73,20.42,53.31,11.59a17.16,17.16,0,0,0-3.77-5.82A16.48,16.48,0,0,0,42.79,2,32.8,32.8,0,0,0,32.8.58a38.44,38.44,0,0,0-11,1.48,31.55,31.55,0,0,0-8.34,3.71Q7,10.23,7,15.63a9.31,9.31,0,0,0,2,6.21,6.8,6.8,0,0,0,5.5,2.36,8.46,8.46,0,0,0,5.91-2,7.06,7.06,0,0,0,2.19-5.5,8.46,8.46,0,0,0-6.48-8.44Q20,3.34,29.76,3.34q6.14,0,9.48,2.94t3.34,11v8.57a6.38,6.38,0,0,1-2.33,4.73,25.92,25.92,0,0,1-7.59,4.32l-6.61,2.7a101.88,101.88,0,0,0-12.49,6.11,23,23,0,0,0-7.22,6.51,15.39,15.39,0,0,0-2.57,9,14.92,14.92,0,0,0,2.4,8.67A14.16,14.16,0,0,0,12.55,73a22.67,22.67,0,0,0,8.77,1.65,25.81,25.81,0,0,0,11.54-2.8,24,24,0,0,0,9.72-9.48q0,5.6,2.6,8.94t9.28,3.34A17.48,17.48,0,0,0,59.33,74,14.7,14.7,0,0,0,63,72.39q1.62-1,4-2.84Z"/><path class="cls-2" d="M7.74,121.64l-2.66,2.93v4H2.43V112.88H5.08V121l7.48-8.1h3.11L9.6,119.58l6.47,9H12.89Z"/><path class="cls-2" d="M63.21,123.81c-.22,0-.47,0-.72,0H58.78v4.72H56.13V112.88h6.36c4,0,6.31,1.95,6.31,5.35a5,5,0,0,1-3.25,5.08l3.51,5.24h-3Zm-.72-2.35c2.42,0,3.81-1,3.81-3.16s-1.39-3-3.81-3H58.78v6.2Z"/><path class="cls-2" d="M112.59,115.26v4.23h7.66v2.37h-7.66v4.32h8.82v2.37H109.94V112.88h11.19v2.37Z"/><path class="cls-2" d="M164.47,125l-1.5,3.54h-2.75l6.92-15.67h2.71l6.85,15.67h-2.82l-1.5-3.54Zm3.94-9.31-3,7h5.91Z"/><path class="cls-2" d="M220.59,115.26v13.3h-2.64v-13.3H213v-2.37h12.56v2.37Z"/><path class="cls-2" d="M265.44,128.56V112.88h2.64v15.67Z"/><path class="cls-2" d="M325.14,120.72a8.32,8.32,0,1,1-8.31-7.9A8,8,0,0,1,325.14,120.72Zm-13.93,0a5.62,5.62,0,0,0,5.64,5.57,5.55,5.55,0,1,0-5.64-5.57Z"/><path class="cls-2" d="M376.58,128.56l-8.35-11.24v11.24h-2.64V112.88h2.6l8.4,11.26V112.88h2.6v15.67Z"/><path class="cls-2" d="M431.58,114.38l-1.1,2.33a9.38,9.38,0,0,0-4.59-1.46c-1.54,0-2.55.58-2.55,1.64,0,3.43,8.46,1.59,8.44,7.23,0,2.8-2.46,4.52-5.91,4.52a9.64,9.64,0,0,1-6.4-2.49l1.14-2.28a8.26,8.26,0,0,0,5.31,2.28c1.84,0,2.93-.69,2.93-1.9,0-3.49-8.46-1.54-8.46-7.12,0-2.69,2.31-4.37,5.71-4.37A10.21,10.21,0,0,1,431.58,114.38Z"/><line class="cls-3" y1="105.95" x2="2.5" y2="105.95"/><line class="cls-4" x1="4.49" y1="105.95" x2="428.61" y2="105.95"/><line class="cls-3" x1="429.6" y1="105.95" x2="432.1" y2="105.95"/></g></g></svg>