<?xml version="1.0" encoding="utf-8"?>
<!-- Generator: Adobe Illustrator 20.0.0, SVG Export Plug-In . SVG Version: 6.00 Build 0)  -->
<svg version="1.1" id="Layer_1" xmlns="http://www.w3.org/2000/svg" xmlns:xlink="http://www.w3.org/1999/xlink" x="0px" y="0px"
	 viewBox="0 0 97 61" style="enable-background:new 0 0 97 61;" xml:space="preserve">
<style type="text/css">
	.st0{enable-background:new    ;}
	.st1{fill:#ED145B;}
</style>
<g class="st0">
	<path class="st1" d="M0,37.4C0,28.9,3.4,21.1,10,14C16.6,6.8,24.7,2.4,34.4,0.8l1.1,0.8c-2.6,1.5-4.9,3.7-6.7,6.7
		c-1.9,2.9-2.9,6.1-3.2,9.6c11.3,3.3,16.9,10,16.9,20.2c0,6.2-2.1,11.5-6.2,15.7c-4.1,4.3-9.2,6.5-15.2,6.5c-6.1,0-11.1-2.2-15-6.5
		C2.1,49.6,0.1,44.1,0,37.4z M54.4,37.4c0-8.5,3.3-16.3,9.9-23.4C70.9,6.8,79,2.4,88.7,0.8l1.1,0.8c-2.7,1.6-5,3.8-6.8,6.7
		c-1.8,2.9-2.9,6.1-3.2,9.6c11.3,3.3,16.9,10,16.9,20.2c0,6.2-2.1,11.5-6.2,15.7c-4.1,4.3-9.2,6.5-15.2,6.5c-6.1,0-11-2.2-15-6.5
		C56.4,49.6,54.4,44.1,54.4,37.4z"/>
</g>
</svg>
